<svg id="visual" viewBox="0 0 900 450" width="900" height="450" xmlns="http://www.w3.org/2000/svg" xmlns:xlink="http://www.w3.org/1999/xlink" version="1.1"><rect x="0" y="0" width="900" height="450" fill="#fff"></rect><path d="M0 212L37.5 219.2C75 226.3 150 240.7 225 239.8C300 239 375 223 450 223.2C525 223.3 600 239.7 675 237C750 234.3 825 212.7 862.5 201.8L900 191L900 451L862.5 451C825 451 750 451 675 451C600 451 525 451 450 451C375 451 300 451 225 451C150 451 75 451 37.5 451L0 451Z" fill="#d2d2d2" stroke-linecap="round" stroke-linejoin="miter"></path></svg>